<mxfile host="65bd71144e">
    <diagram id="Lz7AijbrBp_rhBIXZJey" name="PÃ¡gina-1">
        <mxGraphModel dx="1775" dy="1510" grid="1" gridSize="10" guides="1" tooltips="1" connect="1" arrows="1" fold="1" page="1" pageScale="1" pageWidth="827" pageHeight="583" math="0" shadow="0">
            <root>
                <mxCell id="0"/>
                <mxCell id="1" parent="0"/>
                <mxCell id="14" value="" style="rounded=0;whiteSpace=wrap;html=1;" vertex="1" parent="1">
                    <mxGeometry width="1600" height="920" as="geometry"/>
                </mxCell>
                <mxCell id="VnGlANeKpyUaF631w82r-49" value="" style="edgeStyle=orthogonalEdgeStyle;rounded=0;orthogonalLoop=1;jettySize=auto;html=1;" parent="1" source="VnGlANeKpyUaF631w82r-4" target="VnGlANeKpyUaF631w82r-48" edge="1">
                    <mxGeometry relative="1" as="geometry"/>
                </mxCell>
                <mxCell id="VnGlANeKpyUaF631w82r-4" value="&lt;i&gt;&lt;font color=&quot;#7f00ff&quot;&gt;formatIsoDateTime&lt;/font&gt;(dateString, formatter)&lt;/i&gt;" style="rounded=1;whiteSpace=wrap;html=1;fontSize=12;" parent="1" vertex="1">
                    <mxGeometry x="280" y="115" width="200" height="80" as="geometry"/>
                </mxCell>
                <mxCell id="VnGlANeKpyUaF631w82r-6" value="def = { dateString, formatter }&lt;br&gt;c-uses={}&lt;br&gt;p-uses={}" style="rounded=0;whiteSpace=wrap;html=1;fontSize=12;fillColor=#e1d5e7;strokeColor=#9673a6;" parent="1" vertex="1">
                    <mxGeometry x="140" y="115" width="140" height="80" as="geometry"/>
                </mxCell>
                <mxCell id="VnGlANeKpyUaF631w82r-7" value="1" style="rounded=0;whiteSpace=wrap;html=1;fontSize=12;fillColor=#dae8fc;strokeColor=#6c8ebf;" parent="1" vertex="1">
                    <mxGeometry x="70" y="115" width="70" height="80" as="geometry"/>
                </mxCell>
                <mxCell id="VnGlANeKpyUaF631w82r-9" value="" style="edgeStyle=orthogonalEdgeStyle;rounded=0;orthogonalLoop=1;jettySize=auto;html=1;" parent="1" source="VnGlANeKpyUaF631w82r-8" target="VnGlANeKpyUaF631w82r-4" edge="1">
                    <mxGeometry relative="1" as="geometry"/>
                </mxCell>
                <mxCell id="VnGlANeKpyUaF631w82r-8" value="start" style="rounded=1;whiteSpace=wrap;html=1;fontSize=12;" parent="1" vertex="1">
                    <mxGeometry x="320" y="15" width="120" height="60" as="geometry"/>
                </mxCell>
                <mxCell id="VnGlANeKpyUaF631w82r-18" value="" style="edgeStyle=orthogonalEdgeStyle;rounded=0;orthogonalLoop=1;jettySize=auto;html=1;" parent="1" source="VnGlANeKpyUaF631w82r-14" target="VnGlANeKpyUaF631w82r-17" edge="1">
                    <mxGeometry relative="1" as="geometry"/>
                </mxCell>
                <mxCell id="VnGlANeKpyUaF631w82r-14" value="dateTime = LocalDateTime&lt;br&gt;.parse(dateString);" style="rounded=1;whiteSpace=wrap;html=1;fontSize=12;" parent="1" vertex="1">
                    <mxGeometry x="760" y="115" width="200" height="80" as="geometry"/>
                </mxCell>
                <mxCell id="VnGlANeKpyUaF631w82r-16" value="def = { dateTime }&lt;br&gt;c-uses={ dateString }&lt;br&gt;p-uses={}" style="rounded=0;whiteSpace=wrap;html=1;fontSize=12;fillColor=#e1d5e7;strokeColor=#9673a6;" parent="1" vertex="1">
                    <mxGeometry x="830" y="35" width="130" height="80" as="geometry"/>
                </mxCell>
                <mxCell id="VnGlANeKpyUaF631w82r-20" value="true" style="edgeStyle=orthogonalEdgeStyle;rounded=0;orthogonalLoop=1;jettySize=auto;html=1;" parent="1" source="VnGlANeKpyUaF631w82r-17" target="VnGlANeKpyUaF631w82r-19" edge="1">
                    <mxGeometry relative="1" as="geometry"/>
                </mxCell>
                <mxCell id="VnGlANeKpyUaF631w82r-24" value="false" style="edgeStyle=orthogonalEdgeStyle;rounded=0;orthogonalLoop=1;jettySize=auto;html=1;" parent="1" source="VnGlANeKpyUaF631w82r-17" target="VnGlANeKpyUaF631w82r-23" edge="1">
                    <mxGeometry relative="1" as="geometry"/>
                </mxCell>
                <mxCell id="VnGlANeKpyUaF631w82r-17" value="Exception e&lt;br&gt;thrown" style="rhombus;whiteSpace=wrap;html=1;fontSize=12;fontColor=#000000;" parent="1" vertex="1">
                    <mxGeometry x="810" y="286.5" width="100" height="100" as="geometry"/>
                </mxCell>
                <mxCell id="VnGlANeKpyUaF631w82r-62" value="" style="edgeStyle=orthogonalEdgeStyle;rounded=0;orthogonalLoop=1;jettySize=auto;html=1;" parent="1" source="VnGlANeKpyUaF631w82r-19" target="VnGlANeKpyUaF631w82r-61" edge="1">
                    <mxGeometry relative="1" as="geometry"/>
                </mxCell>
                <mxCell id="VnGlANeKpyUaF631w82r-19" value="date = new Date(Long.parseLong(dateString))" style="rounded=1;whiteSpace=wrap;html=1;fontSize=12;" parent="1" vertex="1">
                    <mxGeometry x="520" y="294.5" width="200" height="80" as="geometry"/>
                </mxCell>
                <mxCell id="VnGlANeKpyUaF631w82r-27" value="true" style="edgeStyle=orthogonalEdgeStyle;rounded=0;orthogonalLoop=1;jettySize=auto;html=1;" parent="1" source="VnGlANeKpyUaF631w82r-23" target="VnGlANeKpyUaF631w82r-25" edge="1">
                    <mxGeometry relative="1" as="geometry"/>
                </mxCell>
                <mxCell id="VnGlANeKpyUaF631w82r-33" value="false" style="edgeStyle=orthogonalEdgeStyle;rounded=0;orthogonalLoop=1;jettySize=auto;html=1;" parent="1" source="VnGlANeKpyUaF631w82r-23" target="VnGlANeKpyUaF631w82r-32" edge="1">
                    <mxGeometry relative="1" as="geometry"/>
                </mxCell>
                <mxCell id="VnGlANeKpyUaF631w82r-23" value="formatter == null" style="rhombus;whiteSpace=wrap;html=1;fontSize=12;fontColor=#000000;" parent="1" vertex="1">
                    <mxGeometry x="1050" y="284.5" width="100" height="100" as="geometry"/>
                </mxCell>
                <mxCell id="VnGlANeKpyUaF631w82r-31" value="" style="edgeStyle=orthogonalEdgeStyle;rounded=0;orthogonalLoop=1;jettySize=auto;html=1;entryX=0.5;entryY=1;entryDx=0;entryDy=0;" parent="1" source="VnGlANeKpyUaF631w82r-25" target="VnGlANeKpyUaF631w82r-30" edge="1">
                    <mxGeometry relative="1" as="geometry"/>
                </mxCell>
                <mxCell id="VnGlANeKpyUaF631w82r-25" value="return DateTimeFormatter.&lt;br&gt;format(dateTime)" style="rounded=1;whiteSpace=wrap;html=1;fontSize=12;" parent="1" vertex="1">
                    <mxGeometry x="1360" y="294.5" width="200" height="80" as="geometry"/>
                </mxCell>
                <mxCell id="VnGlANeKpyUaF631w82r-26" value="3" style="rounded=0;whiteSpace=wrap;html=1;fontSize=12;fillColor=#dae8fc;strokeColor=#6c8ebf;" parent="1" vertex="1">
                    <mxGeometry x="760" y="35" width="70" height="80" as="geometry"/>
                </mxCell>
                <mxCell id="VnGlANeKpyUaF631w82r-30" value="end" style="rounded=1;whiteSpace=wrap;html=1;fontSize=12;" parent="1" vertex="1">
                    <mxGeometry x="1400" y="135" width="120" height="60" as="geometry"/>
                </mxCell>
                <mxCell id="VnGlANeKpyUaF631w82r-34" value="" style="edgeStyle=orthogonalEdgeStyle;rounded=0;orthogonalLoop=1;jettySize=auto;html=1;" parent="1" source="VnGlANeKpyUaF631w82r-32" target="VnGlANeKpyUaF631w82r-30" edge="1">
                    <mxGeometry relative="1" as="geometry"/>
                </mxCell>
                <mxCell id="VnGlANeKpyUaF631w82r-32" value="return formatter.format(dateTime)" style="rounded=1;whiteSpace=wrap;html=1;fontSize=12;" parent="1" vertex="1">
                    <mxGeometry x="1050" y="125" width="200" height="80" as="geometry"/>
                </mxCell>
                <mxCell id="VnGlANeKpyUaF631w82r-35" value="def = {}&lt;br&gt;c-uses={ formatter, dateTime }&lt;br&gt;p-uses={}" style="rounded=0;whiteSpace=wrap;html=1;fontSize=12;fillColor=#e1d5e7;strokeColor=#9673a6;" parent="1" vertex="1">
                    <mxGeometry x="1120" y="45" width="130" height="80" as="geometry"/>
                </mxCell>
                <mxCell id="VnGlANeKpyUaF631w82r-36" value="13" style="rounded=0;whiteSpace=wrap;html=1;fontSize=12;fillColor=#dae8fc;strokeColor=#6c8ebf;" parent="1" vertex="1">
                    <mxGeometry x="1050" y="45" width="70" height="80" as="geometry"/>
                </mxCell>
                <mxCell id="VnGlANeKpyUaF631w82r-37" value="5" style="rounded=0;whiteSpace=wrap;html=1;fontSize=12;fillColor=#dae8fc;strokeColor=#6c8ebf;" parent="1" vertex="1">
                    <mxGeometry x="520" y="215" width="70" height="80" as="geometry"/>
                </mxCell>
                <mxCell id="VnGlANeKpyUaF631w82r-38" value="def = { date }&lt;br&gt;c-uses={ dateString }&lt;br&gt;p-uses={}" style="rounded=0;whiteSpace=wrap;html=1;fontSize=12;fillColor=#e1d5e7;strokeColor=#9673a6;" parent="1" vertex="1">
                    <mxGeometry x="590" y="215" width="130" height="80" as="geometry"/>
                </mxCell>
                <mxCell id="VnGlANeKpyUaF631w82r-39" value="def = {}&lt;br&gt;c-uses={ formatter, dateTime }&lt;br&gt;p-uses={}" style="rounded=0;whiteSpace=wrap;html=1;fontSize=12;fillColor=#e1d5e7;strokeColor=#9673a6;" parent="1" vertex="1">
                    <mxGeometry x="1420" y="374.5" width="140" height="80" as="geometry"/>
                </mxCell>
                <mxCell id="VnGlANeKpyUaF631w82r-40" value="12" style="rounded=0;whiteSpace=wrap;html=1;fontSize=12;fillColor=#dae8fc;strokeColor=#6c8ebf;" parent="1" vertex="1">
                    <mxGeometry x="1360" y="374.5" width="60" height="80" as="geometry"/>
                </mxCell>
                <mxCell id="VnGlANeKpyUaF631w82r-70" value="" style="edgeStyle=orthogonalEdgeStyle;rounded=0;orthogonalLoop=1;jettySize=auto;html=1;" parent="1" source="VnGlANeKpyUaF631w82r-42" target="VnGlANeKpyUaF631w82r-69" edge="1">
                    <mxGeometry relative="1" as="geometry"/>
                </mxCell>
                <mxCell id="VnGlANeKpyUaF631w82r-42" value="dateTime = LocalDateTime&lt;br&gt;.ofInstant(date.toInstant(), ...)" style="rounded=1;whiteSpace=wrap;html=1;fontSize=12;" parent="1" vertex="1">
                    <mxGeometry x="510" y="505" width="200" height="80" as="geometry"/>
                </mxCell>
                <mxCell id="VnGlANeKpyUaF631w82r-43" value="7" style="rounded=0;whiteSpace=wrap;html=1;fontSize=12;fillColor=#dae8fc;strokeColor=#6c8ebf;" parent="1" vertex="1">
                    <mxGeometry x="710" y="505" width="70" height="80" as="geometry"/>
                </mxCell>
                <mxCell id="VnGlANeKpyUaF631w82r-44" value="def = { dateTime }&lt;br&gt;c-uses={ date }&lt;br&gt;p-uses={}" style="rounded=0;whiteSpace=wrap;html=1;fontSize=12;fillColor=#e1d5e7;strokeColor=#9673a6;" parent="1" vertex="1">
                    <mxGeometry x="780" y="505" width="140" height="80" as="geometry"/>
                </mxCell>
                <mxCell id="VnGlANeKpyUaF631w82r-45" value="def = {}&lt;br&gt;c-uses={}&lt;br&gt;p-uses={ formatter }" style="rounded=0;whiteSpace=wrap;html=1;fontSize=12;fillColor=#e1d5e7;strokeColor=#9673a6;" parent="1" vertex="1">
                    <mxGeometry x="1190" y="355" width="110" height="70" as="geometry"/>
                </mxCell>
                <mxCell id="VnGlANeKpyUaF631w82r-46" value="11" style="rounded=0;whiteSpace=wrap;html=1;fontSize=12;fillColor=#dae8fc;strokeColor=#6c8ebf;" parent="1" vertex="1">
                    <mxGeometry x="1130" y="355.5" width="60" height="70" as="geometry"/>
                </mxCell>
                <mxCell id="VnGlANeKpyUaF631w82r-50" value="" style="edgeStyle=orthogonalEdgeStyle;rounded=0;orthogonalLoop=1;jettySize=auto;html=1;" parent="1" source="VnGlANeKpyUaF631w82r-48" target="VnGlANeKpyUaF631w82r-14" edge="1">
                    <mxGeometry relative="1" as="geometry"/>
                </mxCell>
                <mxCell id="VnGlANeKpyUaF631w82r-48" value="LocalDateTime dateTime;" style="rounded=1;whiteSpace=wrap;html=1;fontSize=12;" parent="1" vertex="1">
                    <mxGeometry x="520" y="115" width="200" height="80" as="geometry"/>
                </mxCell>
                <mxCell id="VnGlANeKpyUaF631w82r-51" value="def = { dateTime }&lt;br&gt;c-uses={}&lt;br&gt;p-uses={}" style="rounded=0;whiteSpace=wrap;html=1;fontSize=12;fillColor=#e1d5e7;strokeColor=#9673a6;" parent="1" vertex="1">
                    <mxGeometry x="590" y="35" width="130" height="80" as="geometry"/>
                </mxCell>
                <mxCell id="VnGlANeKpyUaF631w82r-52" value="2" style="rounded=0;whiteSpace=wrap;html=1;fontSize=12;fillColor=#dae8fc;strokeColor=#6c8ebf;" parent="1" vertex="1">
                    <mxGeometry x="520" y="35" width="70" height="80" as="geometry"/>
                </mxCell>
                <mxCell id="VnGlANeKpyUaF631w82r-60" value="" style="edgeStyle=orthogonalEdgeStyle;rounded=0;orthogonalLoop=1;jettySize=auto;html=1;" parent="1" source="VnGlANeKpyUaF631w82r-54" target="VnGlANeKpyUaF631w82r-57" edge="1">
                    <mxGeometry relative="1" as="geometry"/>
                </mxCell>
                <mxCell id="VnGlANeKpyUaF631w82r-54" value="LOG.log(dateString)" style="rounded=1;whiteSpace=wrap;html=1;fontSize=12;" parent="1" vertex="1">
                    <mxGeometry x="250" y="635" width="200" height="80" as="geometry"/>
                </mxCell>
                <mxCell id="VnGlANeKpyUaF631w82r-55" value="9" style="rounded=0;whiteSpace=wrap;html=1;fontSize=12;fillColor=#dae8fc;strokeColor=#6c8ebf;" parent="1" vertex="1">
                    <mxGeometry x="40" y="635" width="70" height="80" as="geometry"/>
                </mxCell>
                <mxCell id="VnGlANeKpyUaF631w82r-56" value="def = {}&lt;br&gt;c-uses={ dateString }&lt;br&gt;p-uses={}" style="rounded=0;whiteSpace=wrap;html=1;fontSize=12;fillColor=#e1d5e7;strokeColor=#9673a6;" parent="1" vertex="1">
                    <mxGeometry x="110" y="635" width="140" height="80" as="geometry"/>
                </mxCell>
                <mxCell id="VnGlANeKpyUaF631w82r-77" style="edgeStyle=orthogonalEdgeStyle;rounded=0;orthogonalLoop=1;jettySize=auto;html=1;exitX=0.5;exitY=1;exitDx=0;exitDy=0;entryX=0.5;entryY=1;entryDx=0;entryDy=0;" parent="1" source="VnGlANeKpyUaF631w82r-57" target="VnGlANeKpyUaF631w82r-23" edge="1">
                    <mxGeometry relative="1" as="geometry">
                        <Array as="points">
                            <mxPoint x="350" y="875"/>
                            <mxPoint x="1100" y="875"/>
                        </Array>
                        <mxPoint x="1035" y="578" as="targetPoint"/>
                    </mxGeometry>
                </mxCell>
                <mxCell id="VnGlANeKpyUaF631w82r-57" value="dateTime =&amp;nbsp;LocalDateTime&lt;br&gt;.ofInstant(...)" style="rounded=1;whiteSpace=wrap;html=1;fontSize=12;" parent="1" vertex="1">
                    <mxGeometry x="250" y="765" width="200" height="80" as="geometry"/>
                </mxCell>
                <mxCell id="VnGlANeKpyUaF631w82r-58" value="10" style="rounded=0;whiteSpace=wrap;html=1;fontSize=12;fillColor=#dae8fc;strokeColor=#6c8ebf;" parent="1" vertex="1">
                    <mxGeometry x="40" y="765" width="70" height="80" as="geometry"/>
                </mxCell>
                <mxCell id="VnGlANeKpyUaF631w82r-59" value="def = { dateTime }&lt;br&gt;c-uses={}&lt;br&gt;p-uses={}" style="rounded=0;whiteSpace=wrap;html=1;fontSize=12;fillColor=#e1d5e7;strokeColor=#9673a6;" parent="1" vertex="1">
                    <mxGeometry x="110" y="765" width="140" height="80" as="geometry"/>
                </mxCell>
                <mxCell id="VnGlANeKpyUaF631w82r-63" value="false" style="edgeStyle=orthogonalEdgeStyle;rounded=0;orthogonalLoop=1;jettySize=auto;html=1;entryX=0.5;entryY=0;entryDx=0;entryDy=0;" parent="1" source="VnGlANeKpyUaF631w82r-61" target="VnGlANeKpyUaF631w82r-42" edge="1">
                    <mxGeometry relative="1" as="geometry">
                        <Array as="points">
                            <mxPoint x="380" y="445"/>
                            <mxPoint x="610" y="445"/>
                        </Array>
                    </mxGeometry>
                </mxCell>
                <mxCell id="VnGlANeKpyUaF631w82r-75" value="true" style="edgeStyle=orthogonalEdgeStyle;rounded=0;orthogonalLoop=1;jettySize=auto;html=1;" parent="1" source="VnGlANeKpyUaF631w82r-61" target="VnGlANeKpyUaF631w82r-54" edge="1">
                    <mxGeometry relative="1" as="geometry"/>
                </mxCell>
                <mxCell id="VnGlANeKpyUaF631w82r-61" value="Exception ex&lt;br&gt;thrown" style="rhombus;whiteSpace=wrap;html=1;fontSize=12;fontColor=#000000;" parent="1" vertex="1">
                    <mxGeometry x="300" y="284.5" width="100" height="100" as="geometry"/>
                </mxCell>
                <mxCell id="VnGlANeKpyUaF631w82r-73" value="true" style="edgeStyle=orthogonalEdgeStyle;rounded=0;orthogonalLoop=1;jettySize=auto;html=1;exitX=0;exitY=0.5;exitDx=0;exitDy=0;entryX=1;entryY=0.5;entryDx=0;entryDy=0;" parent="1" source="VnGlANeKpyUaF631w82r-69" target="VnGlANeKpyUaF631w82r-54" edge="1">
                    <mxGeometry relative="1" as="geometry">
                        <Array as="points">
                            <mxPoint x="560" y="675"/>
                        </Array>
                    </mxGeometry>
                </mxCell>
                <mxCell id="VnGlANeKpyUaF631w82r-78" style="edgeStyle=orthogonalEdgeStyle;rounded=0;orthogonalLoop=1;jettySize=auto;html=1;exitX=1;exitY=0.5;exitDx=0;exitDy=0;entryX=0.5;entryY=1;entryDx=0;entryDy=0;" parent="1" source="VnGlANeKpyUaF631w82r-69" target="VnGlANeKpyUaF631w82r-23" edge="1">
                    <mxGeometry relative="1" as="geometry">
                        <Array as="points">
                            <mxPoint x="1100" y="675"/>
                        </Array>
                    </mxGeometry>
                </mxCell>
                <mxCell id="12" value="false" style="edgeLabel;html=1;align=center;verticalAlign=middle;resizable=0;points=[];" vertex="1" connectable="0" parent="VnGlANeKpyUaF631w82r-78">
                    <mxGeometry x="-0.3799" y="3" relative="1" as="geometry">
                        <mxPoint x="-4" y="-7" as="offset"/>
                    </mxGeometry>
                </mxCell>
                <mxCell id="VnGlANeKpyUaF631w82r-69" value="Exception ex&lt;br&gt;thrown" style="rhombus;whiteSpace=wrap;html=1;fontSize=12;fontColor=#000000;" parent="1" vertex="1">
                    <mxGeometry x="560" y="625" width="100" height="100" as="geometry"/>
                </mxCell>
                <mxCell id="2" value="def = {e}&lt;br&gt;c-uses={}&lt;br&gt;p-uses={e}" style="rounded=0;whiteSpace=wrap;html=1;fontSize=12;fillColor=#e1d5e7;strokeColor=#9673a6;" vertex="1" parent="1">
                    <mxGeometry x="850" y="386.5" width="90" height="58.5" as="geometry"/>
                </mxCell>
                <mxCell id="3" value="4" style="rounded=0;whiteSpace=wrap;html=1;fontSize=12;fillColor=#dae8fc;strokeColor=#6c8ebf;" vertex="1" parent="1">
                    <mxGeometry x="790" y="386.5" width="60" height="58.5" as="geometry"/>
                </mxCell>
                <mxCell id="6" value="def = {ex}&lt;br&gt;c-uses={}&lt;br&gt;p-uses={ex}" style="rounded=0;whiteSpace=wrap;html=1;fontSize=12;fillColor=#e1d5e7;strokeColor=#9673a6;" vertex="1" parent="1">
                    <mxGeometry x="210" y="307.25" width="90" height="58.5" as="geometry"/>
                </mxCell>
                <mxCell id="7" value="6" style="rounded=0;whiteSpace=wrap;html=1;fontSize=12;fillColor=#dae8fc;strokeColor=#6c8ebf;" vertex="1" parent="1">
                    <mxGeometry x="150" y="307.25" width="60" height="58.5" as="geometry"/>
                </mxCell>
                <mxCell id="10" value="8" style="rounded=0;whiteSpace=wrap;html=1;fontSize=12;fillColor=#dae8fc;strokeColor=#6c8ebf;" vertex="1" parent="1">
                    <mxGeometry x="545" y="725" width="60" height="58.5" as="geometry"/>
                </mxCell>
                <mxCell id="11" value="def = {ex}&lt;br&gt;c-uses={}&lt;br&gt;p-uses={ex}" style="rounded=0;whiteSpace=wrap;html=1;fontSize=12;fillColor=#e1d5e7;strokeColor=#9673a6;" vertex="1" parent="1">
                    <mxGeometry x="605" y="725" width="90" height="58.5" as="geometry"/>
                </mxCell>
            </root>
        </mxGraphModel>
    </diagram>
</mxfile>